<svg xmlns="http://www.w3.org/2000/svg" xmlns:xlink="http://www.w3.org/1999/xlink" width="650" zoomAndPan="magnify" viewBox="0 0 487.5 412.499988" height="550" preserveAspectRatio="xMidYMid meet" version="1.0"><defs><g/><clipPath id="id1"><path d="M 103 21 L 397 21 L 397 412 L 103 412 Z M 103 21 " clip-rule="nonzero"/></clipPath></defs><g clip-path="url(#id1)"><g fill="#000000" fill-opacity="1"><g transform="translate(59.676872, 425.170762)"><g><path d="M 336.921875 -275.5625 C 336.921875 -230.414062 323.609375 -195.539062 296.984375 -170.9375 C 270.359375 -146.34375 232.539062 -134.046875 183.53125 -134.046875 L 152.84375 -134.046875 L 152.84375 0 L 43.671875 0 L 43.671875 -404.09375 L 183.53125 -404.09375 C 234.570312 -404.09375 272.894531 -392.941406 298.5 -370.640625 C 324.113281 -348.347656 336.921875 -316.65625 336.921875 -275.5625 Z M 152.84375 -223.046875 L 172.75 -223.046875 C 189.144531 -223.046875 202.179688 -227.648438 211.859375 -236.859375 C 221.535156 -246.078125 226.375 -258.796875 226.375 -275.015625 C 226.375 -302.285156 211.265625 -315.921875 181.046875 -315.921875 L 152.84375 -315.921875 Z M 152.84375 -223.046875 "/></g></g></g></g><g fill="#53bf9d" fill-opacity="1"><g transform="translate(18.46232, 254.686324)"><g><path d="M 315.59375 -153.09375 L 263.265625 -102.5625 L 332.734375 -71.625 L 299.71875 -20.203125 L 247.421875 -58.21875 L 243.484375 12.890625 L 184.28125 0.421875 L 199 -63.046875 L 142.59375 -34.90625 L 117.578125 -92.15625 L 186.671875 -108.90625 L 140.59375 -154.0625 L 186 -194.046875 L 227.609375 -132.3125 L 267.78125 -192.984375 Z M 315.59375 -153.09375 "/></g></g></g><g fill="#ffc54d" fill-opacity="1"><g transform="translate(65.460268, 274.692022)"><g><path d="M 249.703125 -175.078125 L 211.78125 -124.46875 L 275.6875 -107.53125 L 254.484375 -58.828125 L 204.328125 -84.234375 L 210.78125 -22.640625 L 158.265625 -25.140625 L 162.078125 -81.65625 L 117.5625 -49.703125 L 88.171875 -95.390625 L 145.171875 -119.328125 L 99.359375 -151.703125 L 132.796875 -192.3125 L 177.046875 -145.078125 L 203.140625 -202.703125 Z M 249.703125 -175.078125 "/></g></g></g><g fill="#f94c66" fill-opacity="1"><g transform="translate(110.080485, 278.38512)"><g><path d="M 181.171875 -183.09375 L 157.28125 -135.328125 L 212.9375 -130.859375 L 202.640625 -87.1875 L 157.125 -100.75 L 171.78125 -50.5625 L 127.734375 -44.71875 L 122.421875 -92.265625 L 90.234375 -59 L 58.921875 -92.5625 L 102.671875 -121.015625 L 59.75 -141.03125 L 81.40625 -179.8125 L 125.3125 -147.234375 L 138.3125 -199.046875 Z M 181.171875 -183.09375 "/></g></g></g><g fill="#bd4291" fill-opacity="1"><g transform="translate(142.28355, 276.312238)"><g><path d="M 125.78125 -169.109375 L 111.90625 -127.65625 L 157.5 -130.4375 L 154.15625 -93.875 L 115.75 -99.640625 L 133.375 -60.640625 L 98.359375 -50.875 L 88.59375 -88.78125 L 66.328125 -58.15625 L 37.125 -81.734375 L 69.3125 -109.8125 L 32.234375 -121.09375 L 45.34375 -155.015625 L 84.65625 -133.625 L 89.25 -177.109375 Z M 125.78125 -169.109375 "/></g></g></g><g fill="#ffffff" fill-opacity="1"><g transform="translate(182.371974, 262.794552)"><g><path d="M 65 -144.0625 L 61.46875 -111.46875 L 94.4375 -120.828125 L 97.859375 -93.515625 L 68.78125 -91.5625 L 87.953125 -65.828125 L 63.875 -53.046875 L 50.640625 -79.25 L 39.25 -53.234375 L 14.078125 -65.828125 L 33.140625 -91.5625 L 4.171875 -93.875 L 8.328125 -120.828125 L 40.546875 -111.46875 L 36.9375 -144.0625 Z M 65 -144.0625 "/></g></g></g></svg>